ply
format ascii 1.0
comment author: Proteus
comment object: DefaultPSLGDomain
element vertex 25
property float x
property float y
property float z
element face 25 
property list uchar int vertex_index
end_header
2.7000000000000000e+02 6.2517338360000014e+00 0.0000000000000000e+00
0.0000000000000000e+00 6.2517338360000014e+00 0.0000000000000000e+00
0.0000000000000000e+00 -1.1938669180000000e+01 0.0000000000000000e+00
1.0170999999999999e+02 -8.5299999999999994e+00 0.0000000000000000e+00
1.3000000000000000e+02 -7.5819000000000001e+00 0.0000000000000000e+00
1.3500000000000000e+02 -7.4280999999999997e+00 0.0000000000000000e+00
1.4000000000000000e+02 -7.2731000000000003e+00 0.0000000000000000e+00
1.4500000000000000e+02 -7.1227000000000000e+00 0.0000000000000000e+00
1.5000000000000000e+02 -6.9645000000000001e+00 0.0000000000000000e+00
1.5500000000000000e+02 -6.8411999999999997e+00 0.0000000000000000e+00
1.6000000000000000e+02 -6.6772999999999998e+00 0.0000000000000000e+00
1.6500000000000000e+02 -6.5029000000000003e+00 0.0000000000000000e+00
1.7000000000000000e+02 -6.3990999999999998e+00 0.0000000000000000e+00
1.7500000000000000e+02 -6.2521000000000004e+00 0.0000000000000000e+00
1.8000000000000000e+02 -6.1372999999999998e+00 0.0000000000000000e+00
1.8500000000000000e+02 -6.0689000000000002e+00 0.0000000000000000e+00
1.9000000000000000e+02 -2.6339000000000001e+00 0.0000000000000000e+00
1.9500000000000000e+02 -1.3600000000000001e+00 0.0000000000000000e+00
2.1500000000000000e+02 -1.3600000000000001e+00 0.0000000000000000e+00
2.1500000000000000e+02 3.2200000000000002e+00 0.0000000000000000e+00
2.1530000000000001e+02 3.2200000000000002e+00 0.0000000000000000e+00
2.1530000000000001e+02 -1.3600000000000001e+00 0.0000000000000000e+00
2.3500000000000000e+02 -1.3600000000000001e+00 0.0000000000000000e+00
2.3500000000000000e+02 -7.9199999999999999e+00 0.0000000000000000e+00
2.7000000000000000e+02 -7.9199999999999999e+00 0.0000000000000000e+00
2 0 1
2 1 2
2 2 3
2 3 4
2 4 5
2 5 6
2 6 7
2 7 8
2 8 9
2 9 10
2 10 11
2 11 12
2 12 13
2 13 14
2 14 15
2 15 16
2 16 17
2 17 18
2 18 19
2 19 20
2 20 21
2 21 22
2 22 23
2 23 24
2 24 0
